<svg width="512" height="512" viewBox="0 0 512 512" xmlns="http://www.w3.org/2000/svg">
  <!-- Background gold with radial gradient for 3D effect -->
  <defs>
    <radialGradient id="goldGradient" cx="50%" cy="50%" r="50%">
      <stop offset="0%" stop-color="#FFF176"/>
      <stop offset="60%" stop-color="#FFD700"/>
      <stop offset="100%" stop-color="#FFC107"/>
    </radialGradient>
    
    <!-- Dog face gradient -->
    <linearGradient id="dogGradient" x1="0" y1="0" x2="0" y2="1">
      <stop offset="0%" stop-color="#FF4500"/>
      <stop offset="50%" stop-color="#FFD700"/>
      <stop offset="100%" stop-color="#8B0000"/>
    </linearGradient>
    
    <!-- Highlights -->
    <radialGradient id="highlight" cx="50%" cy="50%" r="50%">
      <stop offset="0%" stop-color="#FFFFFF" stop-opacity="0.5"/>
      <stop offset="100%" stop-color="#FFFFFF" stop-opacity="0"/>
    </radialGradient>
  </defs>

  <!-- Coin background -->
  <circle cx="256" cy="256" r="256" fill="url(#goldGradient)"/>
  
  <!-- Dog main face -->
  <path d="M156 280 C156 180, 356 180, 356 280 C356 380, 156 380, 156 280 Z" fill="url(#dogGradient)" stroke="#000000" stroke-width="4"/>
  
  <!-- Ears -->
  <path d="M160 230 Q140 180, 180 200 Z" fill="#FF4500" stroke="#000000" stroke-width="3"/>
  <path d="M352 230 Q372 180, 320 200 Z" fill="#FF4500" stroke="#000000" stroke-width="3"/>
  
  <!-- Eyes -->
  <ellipse cx="220" cy="260" rx="12" ry="12" fill="#000000"/>
  <ellipse cx="292" cy="260" rx="12" ry="12" fill="#000000"/>
  
  <!-- Nose -->
  <ellipse cx="256" cy="295" rx="9" ry="6" fill="#000000"/>
  
  <!-- Mouth -->
  <path d="M220 320 Q256 340, 292 320" stroke="#000000" stroke-width="3" fill="none"/>
  
  <!-- Facial highlights for depth -->
  <path d="M200 300 Q256 360, 312 300" stroke="#FFD700" stroke-width="4" fill="none"/>
  
  <!-- Cheek blush -->
  <circle cx="200" cy="290" r="6" fill="#FFD700" opacity="0.6"/>
  <circle cx="312" cy="290" r="6" fill="#FFD700" opacity="0.6"/>
  
  <!-- Light reflection -->
  <circle cx="150" cy="150" r="60" fill="url(#highlight)" />
</svg>
